<?xml version="1.0" encoding="utf-8"?>
<!-- Generator: Adobe Illustrator 26.0.3, SVG Export Plug-In . SVG Version: 6.00 Build 0)  -->
<svg version="1.1" id="Ebene_1" xmlns="http://www.w3.org/2000/svg" xmlns:xlink="http://www.w3.org/1999/xlink" x="0px" y="0px"
	 viewBox="0 0 401.14 194.9" style="enable-background:new 0 0 401.14 194.9;" xml:space="preserve">
<style type="text/css">
	.st0{fill:#8BB31D;}
</style>
<g id="LIFE_SCIENCE_ENGINEERING_00000104688856086816776030000006882333894125469352_">
	<path class="st0" d="M111.39,157.98V120.6H53.23c1.67,9.06,1.25,20.82-4.5,37.38H111.39z"/>
	<path class="st0" d="M111.39,37.27H45.83c-8.08,13.82-9.46,26.58-8.09,37.38h73.66V37.27z"/>
	<path class="st0" d="M111.39,78.78H38.36c1.5,7.79,4.28,14.41,6.64,19.47c2.17,5.08,5.37,10.57,7.34,17.92h59.06V78.78z"/>
	<g>
		<path class="st0" d="M125.33,41.71h20.88v5.49h-14.35v6.86h12.44v5.08h-12.44v12.27h-6.53V41.71z"/>
		<path class="st0" d="M149.12,56.52c0.33-5.53,5.28-7.2,10.11-7.2c4.28,0,9.44,0.96,9.44,6.12v11.19c0,1.96,0.21,3.91,0.75,4.78
			h-5.99c-0.21-0.67-0.37-1.37-0.42-2.08c-1.87,1.95-4.62,2.66-7.24,2.66c-4.08,0-7.32-2.04-7.32-6.45c0-4.87,3.66-6.03,7.32-6.53
			c3.62-0.54,6.99-0.42,6.99-2.83c0-2.54-1.75-2.91-3.83-2.91c-2.25,0-3.7,0.91-3.91,3.25H149.12z M162.77,60.88
			c-1,0.87-3.08,0.91-4.91,1.25c-1.83,0.37-3.49,1-3.49,3.16c0,2.2,1.71,2.75,3.62,2.75c4.62,0,4.78-3.66,4.78-4.95V60.88z"/>
		<path class="st0" d="M187.9,57.47c-0.37-2.41-1.91-3.7-4.37-3.7c-3.79,0-5.03,3.83-5.03,6.99c0,3.08,1.21,6.78,4.91,6.78
			c2.75,0,4.33-1.75,4.7-4.37h5.7c-0.75,5.7-4.7,8.82-10.36,8.82c-6.49,0-10.86-4.58-10.86-11.02c0-6.7,3.99-11.65,10.98-11.65
			c5.08,0,9.73,2.66,10.11,8.15H187.9z"/>
		<path class="st0" d="M217.31,71.41h-5.62v-3h-0.12c-1.5,2.41-4.08,3.58-6.57,3.58c-6.28,0-7.86-3.54-7.86-8.86V49.9h5.91v12.15
			c0,3.54,1.04,5.28,3.79,5.28c3.2,0,4.58-1.79,4.58-6.16V49.9h5.91V71.41z"/>
		<path class="st0" d="M221.97,41.71h5.91v29.7h-5.91V41.71z"/>
		<path class="st0" d="M240.03,49.9h4.33v3.95h-4.33V64.5c0,2,0.5,2.5,2.5,2.5c0.62,0,1.21-0.04,1.83-0.17v4.62
			c-1,0.17-2.29,0.21-3.45,0.21c-3.62,0-6.78-0.83-6.78-5.12V53.85h-3.58V49.9h3.58v-6.45h5.91V49.9z"/>
		<path class="st0" d="M257.79,74.11c-1.29,3.45-3.33,4.87-7.4,4.87c-1.21,0-2.41-0.08-3.62-0.21V73.9
			c1.12,0.08,2.29,0.25,3.45,0.21c2.04-0.21,2.7-2.33,2.04-4.03l-7.57-20.18h6.32l4.87,14.73h0.08l4.7-14.73h6.11L257.79,74.11z"/>
		<path class="st0" d="M125.33,82.97h6.53v24.21h14.48v5.49h-21.01V82.97z"/>
		<path class="st0" d="M155.45,87.84h-5.91v-4.87h5.91V87.84z M149.54,91.17h5.91v21.51h-5.91V91.17z"/>
		<path class="st0" d="M161.4,95.12h-3.54v-3.95h3.54V89.5c0-3.79,2.37-6.53,7.2-6.53c1.04,0,2.12,0.13,3.12,0.17v4.41
			c-0.71-0.08-1.41-0.13-2.16-0.13c-1.58,0-2.25,0.67-2.25,2.45v1.29h4.08v3.95h-4.08v17.55h-5.91V95.12z"/>
		<path class="st0" d="M178.83,103.35c0.17,3.74,2,5.45,5.28,5.45c2.37,0,4.28-1.46,4.66-2.79h5.2c-1.66,5.08-5.2,7.24-10.07,7.24
			c-6.78,0-10.98-4.66-10.98-11.31c0-6.45,4.45-11.36,10.98-11.36c7.32,0,10.86,6.16,10.44,12.77H178.83z M188.44,99.61
			c-0.54-2.99-1.83-4.57-4.7-4.57c-3.74,0-4.83,2.91-4.91,4.57H188.44z"/>
		<path class="st0" d="M214.48,102.81c0,3.95,3.08,5.49,6.57,5.49c2.29,0,5.78-0.67,5.78-3.7c0-3.2-4.45-3.74-8.82-4.91
			c-4.41-1.16-8.86-2.87-8.86-8.44c0-6.07,5.74-8.98,11.11-8.98c6.2,0,11.9,2.7,11.9,9.57h-6.32c-0.21-3.58-2.74-4.49-5.87-4.49
			c-2.08,0-4.49,0.87-4.49,3.37c0,2.29,1.41,2.58,8.86,4.49c2.16,0.54,8.82,1.91,8.82,8.65c0,5.45-4.28,9.53-12.35,9.53
			c-6.57,0-12.73-3.24-12.65-10.57H214.48z"/>
		<path class="st0" d="M251.05,98.74c-0.37-2.41-1.91-3.7-4.37-3.7c-3.79,0-5.03,3.83-5.03,6.99c0,3.08,1.21,6.78,4.91,6.78
			c2.75,0,4.33-1.75,4.7-4.37h5.7c-0.75,5.7-4.7,8.82-10.36,8.82c-6.49,0-10.86-4.58-10.86-11.02c0-6.7,3.99-11.65,10.98-11.65
			c5.08,0,9.73,2.66,10.11,8.15H251.05z"/>
		<path class="st0" d="M266.36,87.84h-5.91v-4.87h5.91V87.84z M260.45,91.17h5.91v21.51h-5.91V91.17z"/>
		<path class="st0" d="M275.89,103.35c0.17,3.74,2,5.45,5.28,5.45c2.37,0,4.28-1.46,4.66-2.79h5.2c-1.66,5.08-5.2,7.24-10.07,7.24
			c-6.78,0-10.98-4.66-10.98-11.31c0-6.45,4.45-11.36,10.98-11.36c7.32,0,10.86,6.16,10.44,12.77H275.89z M285.49,99.61
			c-0.54-2.99-1.83-4.57-4.7-4.57c-3.74,0-4.83,2.91-4.91,4.57H285.49z"/>
		<path class="st0" d="M294.9,91.17h5.62v3h0.13c1.5-2.41,4.08-3.58,6.57-3.58c6.28,0,7.86,3.54,7.86,8.86v13.23h-5.91v-12.15
			c0-3.54-1.04-5.28-3.79-5.28c-3.2,0-4.57,1.79-4.57,6.16v11.27h-5.91V91.17z"/>
		<path class="st0" d="M334.21,98.74c-0.37-2.41-1.91-3.7-4.37-3.7c-3.79,0-5.03,3.83-5.03,6.99c0,3.08,1.21,6.78,4.91,6.78
			c2.74,0,4.33-1.75,4.7-4.37h5.7c-0.75,5.7-4.7,8.82-10.36,8.82c-6.49,0-10.86-4.58-10.86-11.02c0-6.7,3.99-11.65,10.98-11.65
			c5.07,0,9.73,2.66,10.11,8.15H334.21z"/>
		<path class="st0" d="M348.32,103.35c0.17,3.74,2,5.45,5.28,5.45c2.37,0,4.28-1.46,4.66-2.79h5.2c-1.66,5.08-5.2,7.24-10.07,7.24
			c-6.78,0-10.98-4.66-10.98-11.31c0-6.45,4.45-11.36,10.98-11.36c7.32,0,10.86,6.16,10.44,12.77H348.32z M357.93,99.61
			c-0.54-2.99-1.83-4.57-4.7-4.57c-3.74,0-4.83,2.91-4.91,4.57H357.93z"/>
		<path class="st0" d="M125.33,124.24h22.21v5.49h-15.68v6.37h14.39v5.07h-14.39v7.28h16.02v5.49h-22.55V124.24z"/>
		<path class="st0" d="M151.66,132.43h5.62v3h0.12c1.5-2.41,4.08-3.58,6.57-3.58c6.28,0,7.86,3.54,7.86,8.86v13.23h-5.91v-12.15
			c0-3.54-1.04-5.28-3.79-5.28c-3.2,0-4.58,1.79-4.58,6.16v11.27h-5.91V132.43z"/>
		<path class="st0" d="M197.01,152.57c0,3.54-1.25,9.53-11.15,9.53c-4.24,0-9.19-2-9.48-6.91h5.86c0.54,2.2,2.33,2.95,4.41,2.95
			c3.29,0,4.78-2.25,4.74-5.32v-2.83h-0.08c-1.29,2.25-3.87,3.33-6.45,3.33c-6.45,0-9.19-4.91-9.19-10.82
			c0-5.57,3.2-10.65,9.23-10.65c2.83,0,4.99,0.96,6.41,3.45h0.08v-2.87h5.62V152.57z M191.39,142.91c0-3.49-1.21-6.61-5.03-6.61
			c-3.33,0-4.78,2.91-4.78,6.11c0,3.08,1.17,6.45,4.78,6.45C189.73,148.86,191.39,145.99,191.39,142.91z"/>
		<path class="st0" d="M207.82,129.1h-5.91v-4.87h5.91V129.1z M201.92,132.43h5.91v21.51h-5.91V132.43z"/>
		<path class="st0" d="M212.48,132.43h5.62v3h0.12c1.5-2.41,4.08-3.58,6.57-3.58c6.28,0,7.86,3.54,7.86,8.86v13.23h-5.91v-12.15
			c0-3.54-1.04-5.28-3.79-5.28c-3.2,0-4.58,1.79-4.58,6.16v11.27h-5.91V132.43z"/>
		<path class="st0" d="M242.02,144.62c0.17,3.74,2,5.45,5.28,5.45c2.37,0,4.28-1.46,4.66-2.79h5.2c-1.66,5.08-5.2,7.24-10.07,7.24
			c-6.78,0-10.98-4.66-10.98-11.31c0-6.45,4.45-11.36,10.98-11.36c7.32,0,10.86,6.16,10.44,12.77H242.02z M251.63,140.88
			c-0.54-2.99-1.83-4.57-4.7-4.57c-3.74,0-4.83,2.91-4.91,4.57H251.63z"/>
		<path class="st0" d="M265.9,144.62c0.17,3.74,2,5.45,5.28,5.45c2.37,0,4.28-1.46,4.66-2.79h5.2c-1.66,5.08-5.2,7.24-10.07,7.24
			c-6.78,0-10.98-4.66-10.98-11.31c0-6.45,4.45-11.36,10.98-11.36c7.32,0,10.86,6.16,10.44,12.77H265.9z M275.51,140.88
			c-0.54-2.99-1.83-4.57-4.7-4.57c-3.74,0-4.83,2.91-4.91,4.57H275.51z"/>
		<path class="st0" d="M284.92,132.43h5.62v3.99h0.08c1.08-2.7,3.99-4.58,6.86-4.58c0.42,0,0.91,0.08,1.29,0.21v5.49
			c-0.54-0.12-1.42-0.21-2.12-0.21c-4.33,0-5.82,3.12-5.82,6.91v9.69h-5.91V132.43z"/>
		<path class="st0" d="M307.17,129.1h-5.91v-4.87h5.91V129.1z M301.27,132.43h5.91v21.51h-5.91V132.43z"/>
		<path class="st0" d="M311.83,132.43h5.62v3h0.13c1.5-2.41,4.08-3.58,6.57-3.58c6.28,0,7.86,3.54,7.86,8.86v13.23h-5.91v-12.15
			c0-3.54-1.04-5.28-3.79-5.28c-3.2,0-4.57,1.79-4.57,6.16v11.27h-5.91V132.43z"/>
		<path class="st0" d="M357.18,152.57c0,3.54-1.25,9.53-11.15,9.53c-4.24,0-9.19-2-9.48-6.91h5.87c0.54,2.2,2.33,2.95,4.41,2.95
			c3.28,0,4.78-2.25,4.74-5.32v-2.83h-0.08c-1.29,2.25-3.87,3.33-6.45,3.33c-6.45,0-9.19-4.91-9.19-10.82
			c0-5.57,3.2-10.65,9.24-10.65c2.83,0,4.99,0.96,6.41,3.45h0.08v-2.87h5.62V152.57z M351.56,142.91c0-3.49-1.21-6.61-5.03-6.61
			c-3.33,0-4.78,2.91-4.78,6.11c0,3.08,1.16,6.45,4.78,6.45C349.9,148.86,351.56,145.99,351.56,142.91z"/>
	</g>
</g>
</svg>
